<svg width="199" height="33" viewBox="0 0 199 33" fill="none" xmlns="http://www.w3.org/2000/svg">
<rect width="32" height="32" rx="5" fill="#183FD5"/>
<rect x="8.5" y="8.5" width="16" height="16" rx="4.5" stroke="white"/>
<circle cx="22" cy="10" r="6" fill="#183FD5"/>
<circle cx="22" cy="10" r="4" fill="white"/>
<circle cx="22" cy="10" r="4" fill="white"/>
<path d="M56.6 24V10H67.06V13.5H60.74V20.5H67.42V24H56.6ZM58.66 18.56V15.28H66.32V18.56H58.66ZM69.7594 24V13.3H73.5194L73.7194 15.46L72.8594 15.7C73.006 15.1933 73.266 14.7467 73.6394 14.36C74.026 13.96 74.486 13.6467 75.0194 13.42C75.5527 13.1933 76.1194 13.08 76.7194 13.08C77.5194 13.08 78.1994 13.2467 78.7594 13.58C79.3194 13.9133 79.7394 14.4067 80.0194 15.06C80.3127 15.7 80.4594 16.48 80.4594 17.4V24H76.3994V17.74C76.3994 17.4467 76.3527 17.2 76.2594 17C76.166 16.8 76.026 16.6467 75.8394 16.54C75.6527 16.4333 75.4327 16.38 75.1794 16.38C74.9794 16.38 74.7927 16.4133 74.6194 16.48C74.4594 16.5333 74.3194 16.62 74.1994 16.74C74.0794 16.86 73.986 16.9933 73.9194 17.14C73.8527 17.2867 73.8194 17.4533 73.8194 17.64V24H71.7994C71.2927 24 70.866 24 70.5194 24C70.186 24 69.9327 24 69.7594 24ZM82.3202 28.38L80.7802 25.24C81.4602 25.24 81.9735 25.1667 82.3202 25.02C82.6802 24.8867 82.9202 24.6267 83.0402 24.24C83.1735 23.8667 83.2402 23.3133 83.2402 22.58V13.3H87.3002V23.54C87.3002 24.7267 87.1135 25.6733 86.7402 26.38C86.3802 27.0867 85.8335 27.5933 85.1002 27.9C84.3668 28.22 83.4402 28.38 82.3202 28.38ZM85.3202 11.36C84.6002 11.36 84.0335 11.1933 83.6202 10.86C83.2202 10.5267 83.0202 10.0533 83.0202 9.44C83.0202 8.88 83.2268 8.42 83.6402 8.06C84.0535 7.7 84.6135 7.52 85.3202 7.52C86.0402 7.52 86.6002 7.68667 87.0002 8.02C87.4135 8.35333 87.6202 8.82667 87.6202 9.44C87.6202 10 87.4135 10.46 87.0002 10.82C86.5868 11.18 86.0268 11.36 85.3202 11.36ZM95.3309 24.2C94.1709 24.2 93.1376 23.96 92.2309 23.48C91.3243 23 90.6109 22.3467 90.0909 21.52C89.5709 20.68 89.3109 19.72 89.3109 18.64C89.3109 17.56 89.5709 16.6067 90.0909 15.78C90.6109 14.94 91.3243 14.28 92.2309 13.8C93.1376 13.32 94.1709 13.08 95.3309 13.08C96.4909 13.08 97.5176 13.32 98.4109 13.8C99.3176 14.28 100.024 14.94 100.531 15.78C101.051 16.6067 101.311 17.56 101.311 18.64C101.311 19.72 101.051 20.68 100.531 21.52C100.024 22.3467 99.3176 23 98.4109 23.48C97.5176 23.96 96.4909 24.2 95.3309 24.2ZM95.3309 20.8C95.6909 20.8 96.0109 20.7067 96.2909 20.52C96.5843 20.3333 96.8109 20.08 96.9709 19.76C97.1309 19.4267 97.2109 19.0533 97.2109 18.64C97.2109 18.2133 97.1309 17.84 96.9709 17.52C96.8109 17.1867 96.5843 16.9267 96.2909 16.74C96.0109 16.5533 95.6909 16.46 95.3309 16.46C94.9576 16.46 94.6243 16.5533 94.3309 16.74C94.0509 16.9267 93.8243 17.1867 93.6509 17.52C93.4909 17.84 93.4109 18.2133 93.4109 18.64C93.4109 19.0533 93.4909 19.4267 93.6509 19.76C93.8243 20.08 94.0509 20.3333 94.3309 20.52C94.6243 20.7067 94.9576 20.8 95.3309 20.8ZM103.943 28.6L106.603 22.32L106.643 23.96L101.623 13.3H106.143L107.623 16.86C107.783 17.2333 107.917 17.5867 108.023 17.92C108.143 18.2533 108.23 18.5667 108.283 18.86L107.883 19.22C107.937 19.0733 108.017 18.8467 108.123 18.54C108.23 18.22 108.35 17.8533 108.483 17.44L109.883 13.3H114.403L109.743 24L107.863 28.6H103.943ZM126.424 24V13.68H122.104V10H135.184V13.68H130.744V24H126.424ZM135.99 24V13.3H139.75L139.99 16.86L139.09 16.3C139.263 15.6867 139.537 15.14 139.91 14.66C140.283 14.1667 140.73 13.78 141.25 13.5C141.783 13.22 142.35 13.08 142.95 13.08C143.19 13.08 143.417 13.1 143.63 13.14C143.843 13.1667 144.05 13.2067 144.25 13.26L143.13 17.76C142.997 17.6667 142.783 17.58 142.49 17.5C142.21 17.42 141.903 17.38 141.57 17.38C141.33 17.38 141.11 17.42 140.91 17.5C140.723 17.5667 140.563 17.6733 140.43 17.82C140.31 17.9667 140.217 18.14 140.15 18.34C140.083 18.54 140.05 18.7733 140.05 19.04V24H135.99ZM145.913 24V13.3H149.973V24H145.913ZM147.953 11.36C147.233 11.36 146.666 11.1933 146.253 10.86C145.853 10.5267 145.653 10.0533 145.653 9.44C145.653 8.88 145.86 8.42 146.273 8.06C146.686 7.7 147.246 7.52 147.953 7.52C148.673 7.52 149.233 7.68667 149.633 8.02C150.046 8.35333 150.253 8.82667 150.253 9.44C150.253 10 150.046 10.46 149.633 10.82C149.22 11.18 148.66 11.36 147.953 11.36ZM152.845 28.4V13.3H156.605L156.825 15.66L156.005 15.48C156.099 15.0133 156.325 14.6 156.685 14.24C157.045 13.88 157.499 13.6 158.045 13.4C158.605 13.1867 159.212 13.08 159.865 13.08C160.745 13.08 161.525 13.32 162.205 13.8C162.899 14.2667 163.439 14.92 163.825 15.76C164.225 16.5867 164.425 17.5467 164.425 18.64C164.425 19.72 164.225 20.68 163.825 21.52C163.425 22.3467 162.872 23 162.165 23.48C161.472 23.9467 160.672 24.18 159.765 24.18C159.165 24.18 158.599 24.0733 158.065 23.86C157.545 23.6467 157.105 23.3533 156.745 22.98C156.385 22.5933 156.145 22.1533 156.025 21.66L156.925 21.38V28.4H152.845ZM158.645 20.88C159.032 20.88 159.359 20.7933 159.625 20.62C159.892 20.4467 160.092 20.1933 160.225 19.86C160.372 19.5267 160.445 19.12 160.445 18.64C160.445 18.16 160.372 17.7533 160.225 17.42C160.092 17.0733 159.892 16.8133 159.625 16.64C159.359 16.4667 159.032 16.38 158.645 16.38C158.259 16.38 157.925 16.4667 157.645 16.64C157.379 16.8133 157.172 17.0733 157.025 17.42C156.892 17.7533 156.825 18.16 156.825 18.64C156.825 19.12 156.892 19.5267 157.025 19.86C157.172 20.1933 157.379 20.4467 157.645 20.62C157.925 20.7933 158.259 20.88 158.645 20.88Z" fill="black"/>
</svg>
